<?xml version="1.0" encoding="utf-8"?>
<!-- Svg Vector Icons : http://www.onlinewebfonts.com/icon -->
<!DOCTYPE svg PUBLIC "-//W3C//DTD SVG 1.1//EN" "http://www.w3.org/Graphics/SVG/1.1/DTD/svg11.dtd">
<svg version="1.1" xmlns="http://www.w3.org/2000/svg" xmlns:xlink="http://www.w3.org/1999/xlink" x="0px" y="0px" viewBox="0 0 1000 1000" enable-background="new 0 0 1000 1000" xml:space="preserve">
<metadata> Svg Vector Icons : http://www.onlinewebfonts.com/icon </metadata>
<g><path d="M820.4,152.4c17,25.8,39.1,47.9,64.9,64.9c-25.8,17-47.9,39.1-64.9,64.9c-17-25.8-39.1-47.9-64.9-64.9C781.3,200.3,803.4,178.2,820.4,152.4 M386.9,240.5c46.4,108.1,132.6,194.3,240.7,240.7c-108.1,46.4-194.3,132.6-240.7,240.7c-46.4-108.1-132.6-194.3-240.7-240.7C254.3,434.7,340.5,348.6,386.9,240.5 M745,717.8c17,25.8,39.1,47.9,64.9,64.9c-25.8,17-47.9,39.1-64.9,64.9c-17-25.8-39.1-47.9-64.9-64.9C705.9,765.7,728,743.6,745,717.8 M820.4,47.7l-1.5,1.5c-10.4,87.2-79.4,156.3-166.7,166.6l-1.5,1.5l1.5,1.5c87.2,10.4,156.3,79.4,166.7,166.6l1.5,1.5l1.5-1.5c10.4-87.2,79.4-156.3,166.7-166.6l1.5-1.5l-1.5-1.5c-87.2-10.4-156.3-79.4-166.7-166.6L820.4,47.7L820.4,47.7z M386.9,104.3l-3.1,3.1c-22.9,194-176.7,347.8-370.7,370.7l-3.1,3.1l3.1,3.1C207.1,507.2,360.9,661,383.8,855l3.1,3.1l3.1-3.1c22.9-194,176.7-347.8,370.7-370.7l3.1-3.1l-3.1-3.1c-194-22.9-347.8-176.7-370.7-370.7L386.9,104.3L386.9,104.3z M745,613.1l-1.5,1.5c-10.4,87.2-79.4,156.3-166.7,166.6l-1.5,1.5l1.5,1.5c87.2,10.4,156.3,79.4,166.7,166.6l1.5,1.5l1.5-1.5c10.4-87.2,79.4-156.3,166.7-166.6l1.5-1.5l-1.5-1.5c-87.2-10.4-156.3-79.4-166.7-166.6L745,613.1L745,613.1z"/></g>
</svg>